<svg width="71" height="80" viewBox="0 0 71 80" fill="none" xmlns="http://www.w3.org/2000/svg">
<g clip-path="url(#clip0_123_1543)">
<path d="M67.3556 34.8357V66.2054" stroke="#0BBBEF" stroke-width="3" stroke-linecap="round" stroke-linejoin="round"/>
<path d="M3.01349 66.2054V34.8357" stroke="#0BBBEF" stroke-width="3" stroke-linecap="round" stroke-linejoin="round"/>
<path d="M69.2494 66.2183H1.11966V73.5057H69.2494V66.2183Z" stroke="#0BBBEF" stroke-width="3" stroke-linecap="round" stroke-linejoin="round"/>
<path d="M69.2494 24.9443H1.11966V31.9118H69.2494V24.9443Z" stroke="#0BBBEF" stroke-width="3" stroke-linecap="round" stroke-linejoin="round"/>
<path d="M16.395 76.1191L13.5607 78.432H5.96619V76.1191" stroke="#0BBBEF" stroke-width="3" stroke-linecap="round" stroke-linejoin="round"/>
<path d="M64.4029 76.1191V78.432H56.8052L53.974 76.1191" stroke="#0BBBEF" stroke-width="3" stroke-linecap="round" stroke-linejoin="round"/>
<path d="M32.3614 54.2987L30.845 60.3928L42.0576 46.1156L38.206 45.9492" stroke="#0BBBEF" stroke-width="3" stroke-linecap="round" stroke-linejoin="round"/>
<path d="M36.2322 42.0816L37.0064 36.157L27.4317 49.2154H33.6282" stroke="#0BBBEF" stroke-width="3" stroke-linecap="round" stroke-linejoin="round"/>
<path d="M13.4903 38.4634V60.3543" stroke="#0BBBEF" stroke-width="3" stroke-linecap="round" stroke-linejoin="round"/>
<path d="M24.3382 54.2986V60.3544" stroke="#0BBBEF" stroke-width="3" stroke-linecap="round" stroke-linejoin="round"/>
<path d="M24.3382 38.4634V44.7015" stroke="#0BBBEF" stroke-width="3" stroke-linecap="round" stroke-linejoin="round"/>
<path d="M46.0308 50.5205V60.3543" stroke="#0BBBEF" stroke-width="3" stroke-linecap="round" stroke-linejoin="round"/>
<path d="M46.0308 38.4634V43.7386" stroke="#0BBBEF" stroke-width="3" stroke-linecap="round" stroke-linejoin="round"/>
<path d="M56.8788 38.4634V60.3543" stroke="#0BBBEF" stroke-width="3" stroke-linecap="round" stroke-linejoin="round"/>
<path d="M10.3777 24.9445V8.70298C10.3777 7.10347 11.6765 5.80786 13.2728 5.80786H13.6599C15.2594 5.80786 16.555 7.10347 16.555 8.70298V12.062" stroke="#0BBBEF" stroke-width="3" stroke-linecap="round" stroke-linejoin="round"/>
<path d="M16.555 21.4765V15.376" stroke="#0BBBEF" stroke-width="3" stroke-linecap="round" stroke-linejoin="round"/>
<path d="M13.4903 1.36108V5.80774" stroke="#0BBBEF" stroke-width="3" stroke-linecap="round" stroke-linejoin="round"/>
<path d="M8.43265 12.0618H18.5" stroke="#0BBBEF" stroke-width="3" stroke-linecap="round" stroke-linejoin="round"/>
<path d="M8.43265 18.6392H18.5" stroke="#0BBBEF" stroke-width="3" stroke-linecap="round" stroke-linejoin="round"/>
<path d="M30.0549 21.8413V24.9444" stroke="#0BBBEF" stroke-width="3" stroke-linecap="round" stroke-linejoin="round"/>
<path d="M30.0581 18.6389V8.70274C30.0581 7.10322 31.3537 5.80762 32.9532 5.80762H33.3371C34.9366 5.80762 36.2322 7.10322 36.2322 8.70274V15.3759" stroke="#0BBBEF" stroke-width="3" stroke-linecap="round" stroke-linejoin="round"/>
<path d="M36.2322 24.9444V18.6392" stroke="#0BBBEF" stroke-width="3" stroke-linecap="round" stroke-linejoin="round"/>
<path d="M33.1675 1.36108V5.80774" stroke="#0BBBEF" stroke-width="3" stroke-linecap="round" stroke-linejoin="round"/>
<path d="M28.1099 12.0618H38.1772" stroke="#0BBBEF" stroke-width="3" stroke-linecap="round" stroke-linejoin="round"/>
<path d="M28.1099 18.6392H38.1772" stroke="#0BBBEF" stroke-width="3" stroke-linecap="round" stroke-linejoin="round"/>
<path d="M50.8774 15.376V24.9443" stroke="#0BBBEF" stroke-width="3" stroke-linecap="round" stroke-linejoin="round"/>
<path d="M57.0547 18.6389V8.70274C57.0547 7.10322 55.7591 5.80762 54.1596 5.80762H53.7725C52.1762 5.80762 50.8806 7.10322 50.8806 8.70274V11.7418" stroke="#0BBBEF" stroke-width="3" stroke-linecap="round" stroke-linejoin="round"/>
<path d="M57.0547 24.9444V21.8413" stroke="#0BBBEF" stroke-width="3" stroke-linecap="round" stroke-linejoin="round"/>
<path d="M53.99 1.36108V5.80774" stroke="#0BBBEF" stroke-width="3" stroke-linecap="round" stroke-linejoin="round"/>
<path d="M48.9324 11.7419H58.9997" stroke="#0BBBEF" stroke-width="3" stroke-linecap="round" stroke-linejoin="round"/>
<path d="M48.9324 18.6392H58.9997" stroke="#0BBBEF" stroke-width="3" stroke-linecap="round" stroke-linejoin="round"/>
</g>
<defs>
<clipPath id="clip0_123_1543">
<rect width="70.3691" height="79.3103" fill="white" transform="translate(0 0.241455)"/>
</clipPath>
</defs>
</svg>
