<svg width="263" height="39" viewBox="0 0 263 39" fill="none" xmlns="http://www.w3.org/2000/svg">
<g opacity="0.9" filter="url(#filter0_d_301_3231)">
<path d="M16.6667 34.375C9.33333 34.375 6.33333 33.7083 4.25 31.625C2.70833 30.0833 2.08333 27.75 2.08333 24.4167L2.08333 23.5833H9.25V24.375C9.25 25.75 9.45833 26.625 10 27.1667C11.0417 28.2083 12.875 28.375 16.5417 28.375C20.375 28.375 22.3333 28.125 23.2917 27.1667C23.7917 26.6667 23.9583 25.75 23.9583 24.75C23.9583 23.4583 23.7917 22.5833 23.2917 22.0833C22.1667 20.9167 20.1667 20.9583 14.125 20.625C8.875 20.3333 6 19.5833 4.29167 17.7917C3 16.4583 2.33333 14.5 2.33333 11C2.33333 8.04167 2.875 5.66667 4.45833 4.125C6.66667 1.95833 10.375 1.20833 16.2083 1.20833C22.5417 1.20833 26.1667 1.83333 28.2083 3.91667C29.75 5.45833 30.1667 7.83333 30.1667 11.0417V11.5833H23.0833V11C23.0833 9.875 22.9167 8.875 22.375 8.33333C21.4583 7.41667 19.5833 7.16667 16.25 7.16667C12.875 7.16667 11.0417 7.41667 10.125 8.33333C9.66667 8.79167 9.5 9.58333 9.5 10.6667C9.5 11.9167 9.66667 12.6667 10.125 13.125C11.1667 14.1667 13.0417 14.1667 18.0833 14.5C23.7083 14.875 27.4167 15.2083 29.3333 17.2083C30.6667 18.5833 31.2083 20.9583 31.2083 24.4583C31.2083 27.7083 30.4583 29.875 29.0417 31.2917C26.7917 33.5417 23 34.375 16.6667 34.375ZM36.0908 34V1.58333L61.0908 1.58333V7.66667L43.3408 7.66667V14.5833H60.0075V20.4583H43.3408V27.9167H61.3825V34H36.0908ZM66.6328 34L66.6328 1.58333L82.5495 1.58333C91.9661 1.58333 95.2578 4.29167 95.2578 10.9583C95.2578 15.4583 93.7995 17.75 90.2995 18.9167V19.125C93.9661 19.625 95.3411 21.625 95.3411 26.4167V34H88.0911V27.9167C88.0911 23.3333 86.9661 22.5 81.9661 22.5H73.8828V34H66.6328ZM73.8828 16.4583H81.9661C86.5911 16.4583 88.0078 15.2917 88.0078 11.7917C88.0078 8.625 86.6328 7.66667 81.8411 7.66667L73.8828 7.66667V16.4583ZM109.492 34L97.2419 1.58333L105.075 1.58333L114.2 28.0417H114.284L123.409 1.58333H131.117L118.825 34L109.492 34ZM134.265 34V1.58333H141.556V34H134.265ZM162.494 34.625C149.828 34.625 146.744 30.9167 146.744 17.7917C146.744 4.66667 149.828 0.958334 162.494 0.958334C172.536 0.958334 177.119 3.58333 177.119 12.5V13.4583H169.994V12.9167C169.994 8.5 168.411 7.16667 162.494 7.16667C155.161 7.16667 154.161 8.20833 154.161 17.7917C154.161 27.375 155.161 28.4167 162.494 28.4167C168.578 28.4167 170.036 27.125 170.036 22.2083V21.6667H177.119V22.6667C177.119 31.4167 173.536 34.625 162.494 34.625ZM182.209 34V1.58333L189.501 1.58333V34H182.209ZM210.772 34.625C197.772 34.625 194.689 30.9167 194.689 17.7917C194.689 4.66667 197.772 0.958334 210.772 0.958334C223.772 0.958334 226.855 4.66667 226.855 17.7917C226.855 30.9167 223.772 34.625 210.772 34.625ZM202.105 17.7917C202.105 27.375 203.022 28.4167 210.772 28.4167C218.439 28.4167 219.355 27.375 219.355 17.7917C219.355 8.20833 218.439 7.16667 210.772 7.16667C203.022 7.16667 202.105 8.20833 202.105 17.7917ZM245.71 34.375C238.376 34.375 235.376 33.7083 233.293 31.625C231.751 30.0833 231.126 27.75 231.126 24.4167V23.5833H238.293V24.375C238.293 25.75 238.501 26.625 239.043 27.1667C240.085 28.2083 241.918 28.375 245.585 28.375C249.418 28.375 251.376 28.125 252.335 27.1667C252.835 26.6667 253.001 25.75 253.001 24.75C253.001 23.4583 252.835 22.5833 252.335 22.0833C251.21 20.9167 249.21 20.9583 243.168 20.625C237.918 20.3333 235.043 19.5833 233.335 17.7917C232.043 16.4583 231.376 14.5 231.376 11C231.376 8.04167 231.918 5.66667 233.501 4.125C235.71 1.95833 239.418 1.20833 245.251 1.20833C251.585 1.20833 255.21 1.83333 257.251 3.91667C258.793 5.45833 259.21 7.83333 259.21 11.0417V11.5833H252.126V11C252.126 9.875 251.96 8.875 251.418 8.33333C250.501 7.41667 248.626 7.16667 245.293 7.16667C241.918 7.16667 240.085 7.41667 239.168 8.33333C238.71 8.79167 238.543 9.58333 238.543 10.6667C238.543 11.9167 238.71 12.6667 239.168 13.125C240.21 14.1667 242.085 14.1667 247.126 14.5C252.751 14.875 256.46 15.2083 258.376 17.2083C259.71 18.5833 260.251 20.9583 260.251 24.4583C260.251 27.7083 259.501 29.875 258.085 31.2917C255.835 33.5417 252.043 34.375 245.71 34.375Z" fill="#EEEEEE"/>
</g>
<defs>
<filter id="filter0_d_301_3231" x="0.083252" y="0.958313" width="262.168" height="37.6667" filterUnits="userSpaceOnUse" color-interpolation-filters="sRGB">
<feFlood flood-opacity="0" result="BackgroundImageFix"/>
<feColorMatrix in="SourceAlpha" type="matrix" values="0 0 0 0 0 0 0 0 0 0 0 0 0 0 0 0 0 0 127 0" result="hardAlpha"/>
<feOffset dy="2"/>
<feGaussianBlur stdDeviation="1"/>
<feComposite in2="hardAlpha" operator="out"/>
<feColorMatrix type="matrix" values="0 0 0 0 0 0 0 0 0 0 0 0 0 0 0 0 0 0 0.45 0"/>
<feBlend mode="normal" in2="BackgroundImageFix" result="effect1_dropShadow_301_3231"/>
<feBlend mode="normal" in="SourceGraphic" in2="effect1_dropShadow_301_3231" result="shape"/>
</filter>
</defs>
</svg>
