<svg width="122" height="870" viewBox="0 0 122 870" fill="none" xmlns="http://www.w3.org/2000/svg">
<g opacity="0.9" filter="url(#filter0_d_301_3223)">
<path d="M116.25 812.444C116.25 836.889 114.028 846.889 107.083 853.833C101.944 858.972 94.1667 861.056 83.0556 861.056L80.2778 861.056L80.2778 837.167L82.9167 837.167C87.5 837.167 90.4167 836.472 92.2222 834.667C95.6944 831.194 96.25 825.083 96.25 812.861C96.25 800.083 95.4167 793.556 92.2222 790.361C90.5556 788.694 87.5 788.139 84.1667 788.139C79.8611 788.139 76.9444 788.694 75.2778 790.361C71.3889 794.111 71.5278 800.778 70.4167 820.917C69.4444 838.417 66.9444 848 60.9722 853.694C56.5278 858 50 860.222 38.3333 860.222C28.4722 860.222 20.5556 858.417 15.4167 853.139C8.19444 845.778 5.69445 833.417 5.69445 813.972C5.69445 792.861 7.77778 780.778 14.7222 773.972C19.8611 768.833 27.7778 767.444 38.4722 767.444L40.2778 767.444L40.2778 791.056L38.3333 791.056C34.5833 791.056 31.25 791.611 29.4444 793.417C26.3889 796.472 25.5556 802.722 25.5556 813.833C25.5556 825.083 26.3889 831.194 29.4444 834.25C30.9722 835.778 33.6111 836.333 37.2222 836.333C41.3889 836.333 43.8889 835.778 45.4167 834.25C48.8889 830.778 48.8889 824.528 50 807.722C51.25 788.972 52.3611 776.611 59.0278 770.222C63.6111 765.778 71.5278 763.972 83.1944 763.972C94.0278 763.972 101.25 766.472 105.972 771.194C113.472 778.694 116.25 791.333 116.25 812.444ZM115 747.697L6.94444 747.697L6.94444 664.364L27.2222 664.364L27.2222 723.531L50.2778 723.531L50.2778 667.975L69.8611 667.975L69.8611 723.531L94.7222 723.531L94.7222 663.392L115 663.392L115 747.697ZM115 645.891L6.94444 645.891L6.94444 592.835C6.94443 561.446 15.9722 550.474 38.1944 550.474C53.1944 550.474 60.8333 555.335 64.7222 567.002L65.4167 567.002C67.0833 554.78 73.75 550.196 89.7222 550.196L115 550.196L115 574.363L94.7222 574.363C79.4444 574.363 76.6667 578.113 76.6667 594.78L76.6667 621.724L115 621.724L115 645.891ZM56.5278 621.724L56.5278 594.78C56.5278 579.363 52.6389 574.641 40.9722 574.641C30.4167 574.641 27.2222 579.224 27.2222 595.196L27.2222 621.724L56.5278 621.724ZM115 503.027L6.94443 543.86L6.94443 517.749L95.1389 487.333L95.1389 487.055L6.94443 456.638L6.94443 430.944L115 471.916L115 503.027ZM115 420.451L6.94443 420.451L6.94443 396.146L115 396.146L115 420.451ZM117.083 326.352C117.083 368.574 104.722 378.852 60.9722 378.852C17.2222 378.852 4.86109 368.574 4.86109 326.352C4.86109 292.88 13.6111 277.602 43.3333 277.602L46.5278 277.602L46.5278 301.352L44.7222 301.352C30 301.352 25.5555 306.63 25.5555 326.352C25.5555 350.796 29.0278 354.13 60.9722 354.13C92.9166 354.13 96.3889 350.796 96.3889 326.352C96.3889 306.074 92.0833 301.213 75.6944 301.213L73.8889 301.213L73.8889 277.602L77.2222 277.602C106.389 277.602 117.083 289.546 117.083 326.352ZM115 260.637L6.94442 260.637L6.94442 236.331L115 236.331L115 260.637ZM117.083 165.426C117.083 208.76 104.722 219.037 60.9722 219.037C17.2222 219.037 4.86108 208.76 4.86108 165.426C4.86108 122.093 17.2222 111.815 60.9722 111.815C104.722 111.815 117.083 122.093 117.083 165.426ZM60.9722 194.315C92.9166 194.315 96.3889 191.26 96.3889 165.426C96.3889 139.871 92.9166 136.815 60.9722 136.815C29.0277 136.815 25.5555 139.871 25.5555 165.426C25.5555 191.26 29.0278 194.315 60.9722 194.315ZM116.25 48.9679C116.25 73.4123 114.028 83.4123 107.083 90.3568C101.944 95.4957 94.1666 97.579 83.0555 97.579L80.2777 97.579L80.2777 73.6901L82.9166 73.6901C87.5 73.6901 90.4166 72.9957 92.2222 71.1901C95.6944 67.7179 96.25 61.6068 96.25 49.3845C96.25 36.6068 95.4166 30.079 92.2222 26.8845C90.5555 25.2179 87.5 24.6623 84.1666 24.6623C79.8611 24.6623 76.9444 25.2179 75.2777 26.8845C71.3889 30.6345 71.5277 37.3012 70.4166 57.4401C69.4444 74.9401 66.9444 84.5234 60.9722 90.2179C56.5277 94.5234 50 96.7457 38.3333 96.7457C28.4722 96.7457 20.5555 94.9401 15.4166 89.6623C8.19441 82.3012 5.69441 69.9401 5.69441 50.4957C5.69441 29.3846 7.77775 17.3012 14.7222 10.4957C19.8611 5.35677 27.7777 3.96789 38.4722 3.96789L40.2777 3.96789L40.2777 27.579L38.3333 27.579C34.5833 27.579 31.25 28.1346 29.4444 29.9401C26.3889 32.9957 25.5555 39.2457 25.5555 50.3568C25.5555 61.6068 26.3889 67.7179 29.4444 70.7734C30.9722 72.3012 33.6111 72.8568 37.2222 72.8568C41.3889 72.8568 43.8889 72.3012 45.4166 70.7734C48.8889 67.3012 48.8889 61.0512 50 44.2457C51.25 25.4957 52.3611 13.1345 59.0277 6.74566C63.6111 2.30121 71.5277 0.495657 83.1944 0.495657C94.0277 0.495656 101.25 2.99565 105.972 7.71788C113.472 15.2179 116.25 27.8568 116.25 48.9679Z" fill="#EEEEEE"/>
</g>
<defs>
<filter id="filter0_d_301_3223" x="0.86084" y="0.495667" width="120.223" height="868.56" filterUnits="userSpaceOnUse" color-interpolation-filters="sRGB">
<feFlood flood-opacity="0" result="BackgroundImageFix"/>
<feColorMatrix in="SourceAlpha" type="matrix" values="0 0 0 0 0 0 0 0 0 0 0 0 0 0 0 0 0 0 127 0" result="hardAlpha"/>
<feOffset dy="4"/>
<feGaussianBlur stdDeviation="2"/>
<feComposite in2="hardAlpha" operator="out"/>
<feColorMatrix type="matrix" values="0 0 0 0 0 0 0 0 0 0 0 0 0 0 0 0 0 0 0.45 0"/>
<feBlend mode="normal" in2="BackgroundImageFix" result="effect1_dropShadow_301_3223"/>
<feBlend mode="normal" in="SourceGraphic" in2="effect1_dropShadow_301_3223" result="shape"/>
</filter>
</defs>
</svg>
