<svg width="95" height="885" viewBox="0 0 95 885" fill="none" xmlns="http://www.w3.org/2000/svg">
<g opacity="0.9" filter="url(#filter0_d_301_3243)">
<path d="M89 876.333L6.15741 876.333L6.15741 857.699L73.1343 857.699L73.1343 816.917L89 816.917L89 876.333ZM89 814.282L6.15741 782.338L6.1574 756.889L89 724.944L89 744.217L72.7083 750.18L72.7083 788.939L89 795.009L89 814.282ZM57.8009 783.509L57.8009 755.611L20.213 769.347L20.213 769.56L57.8009 783.509ZM89 716.861L6.1574 716.861L6.1574 674.8C6.1574 653.078 11.9074 644.986 27.5602 644.986C38.3148 644.986 43.213 648.819 45.7685 657.444L46.1944 657.444C48.6435 647.115 54.0741 642.856 66 642.856C82.8241 642.856 89 651.268 89 674.8L89 716.861ZM74.3055 698.439L74.3055 674.8C74.3055 664.898 72.1759 661.384 63.9768 661.384C55.8843 661.384 53.6481 664.898 53.6481 674.694L53.6481 698.439L74.3055 698.439ZM39.3796 698.439L39.3796 674.694C39.3796 666.282 37.3565 663.088 30.0093 663.088C22.662 663.088 20.8518 666.069 20.8518 674.8L20.8518 698.439L39.3796 698.439ZM90.5972 590.97C90.5972 624.193 81.1204 632.072 47.5787 632.072C14.037 632.072 4.56018 624.193 4.56017 590.97C4.56017 557.748 14.037 549.869 47.5787 549.869C81.1204 549.869 90.5972 557.748 90.5972 590.97ZM47.5787 613.119C72.0694 613.119 74.7315 610.776 74.7315 590.97C74.7315 571.378 72.0694 569.035 47.5787 569.035C23.088 569.035 20.4259 571.378 20.4259 590.97C20.4259 610.776 23.088 613.119 47.5787 613.119ZM89 536.612L6.15739 536.612L6.15739 495.936C6.15739 471.871 13.0787 463.459 30.1157 463.459C41.6157 463.459 47.4722 467.186 50.4537 476.13L50.9861 476.13C52.2639 466.76 57.375 463.246 69.6204 463.246L89 463.246L89 481.774L73.4537 481.774C61.7407 481.774 59.6111 484.649 59.6111 497.426L59.6111 518.084L89 518.084L89 536.612ZM44.1713 518.084L44.1713 497.426C44.1713 485.607 41.1898 481.987 32.2454 481.987C24.1528 481.987 21.7037 485.501 21.7037 497.746L21.7037 518.084L44.1713 518.084ZM89 456.479L6.15739 424.535L6.15739 399.086L89 367.141L89 386.415L72.7083 392.377L72.7083 431.137L89 437.206L89 456.479ZM57.8009 425.706L57.8009 397.808L20.2129 411.544L20.2129 411.757L57.8009 425.706ZM89 348.708L22.0231 348.708L22.0231 376.393L6.15739 376.393L6.15738 302.282L22.0231 302.282L22.0231 330.18L89 330.18L89 348.708ZM90.5972 256.302C90.5972 289.525 81.1203 297.404 47.5787 297.404C14.037 297.404 4.56016 289.525 4.56016 256.302C4.56016 223.08 14.037 215.201 47.5787 215.201C81.1203 215.201 90.5972 223.08 90.5972 256.302ZM47.5787 278.451C72.0694 278.451 74.7315 276.108 74.7315 256.302C74.7315 236.71 72.0694 234.367 47.5787 234.367C23.0879 234.367 20.4259 236.71 20.4259 256.302C20.4259 276.108 23.0879 278.451 47.5787 278.451ZM89 201.944L6.15738 201.944L6.15738 161.268C6.15738 137.203 13.0787 128.791 30.1157 128.791C41.6157 128.791 47.4722 132.518 50.4537 141.462L50.9861 141.462C52.2639 132.092 57.375 128.578 69.6203 128.578L89 128.578L89 147.106L73.4537 147.106C61.7407 147.106 59.6111 149.981 59.6111 162.758L59.6111 183.416L89 183.416L89 201.944ZM44.1713 183.416L44.1713 162.758C44.1713 150.939 41.1898 147.319 32.2453 147.319C24.1527 147.319 21.7037 150.833 21.7037 163.078L21.7037 183.416L44.1713 183.416ZM89 114.571L6.15738 114.571L6.15738 95.9364L89 95.9364L89 114.571ZM90.5972 41.5759C90.5972 74.7981 81.1203 82.6778 47.5787 82.6778C14.037 82.6778 4.56015 74.7981 4.56015 41.5759C4.56015 8.3537 14.037 0.474066 47.5787 0.474064C81.1203 0.474063 90.5972 8.35369 90.5972 41.5759ZM47.5787 63.7241C72.0694 63.7241 74.7314 61.3815 74.7314 41.5759C74.7314 21.9833 72.0694 19.6407 47.5787 19.6407C23.0879 19.6407 20.4259 21.9833 20.4259 41.5759C20.4259 61.3815 23.0879 63.7241 47.5787 63.7241Z" fill="#EEEEEE"/>
</g>
<defs>
<filter id="filter0_d_301_3243" x="0.560547" y="0.474091" width="94.0371" height="883.859" filterUnits="userSpaceOnUse" color-interpolation-filters="sRGB">
<feFlood flood-opacity="0" result="BackgroundImageFix"/>
<feColorMatrix in="SourceAlpha" type="matrix" values="0 0 0 0 0 0 0 0 0 0 0 0 0 0 0 0 0 0 127 0" result="hardAlpha"/>
<feOffset dy="4"/>
<feGaussianBlur stdDeviation="2"/>
<feComposite in2="hardAlpha" operator="out"/>
<feColorMatrix type="matrix" values="0 0 0 0 0 0 0 0 0 0 0 0 0 0 0 0 0 0 0.45 0"/>
<feBlend mode="normal" in2="BackgroundImageFix" result="effect1_dropShadow_301_3243"/>
<feBlend mode="normal" in="SourceGraphic" in2="effect1_dropShadow_301_3243" result="shape"/>
</filter>
</defs>
</svg>
