<svg width="129" height="843" viewBox="0 0 129 843" fill="none" xmlns="http://www.w3.org/2000/svg">
<g opacity="0.9" filter="url(#filter0_d_301_3225)">
<path d="M124.222 776.963C124.222 823.185 111.037 834.148 64.3704 834.148C17.7037 834.148 4.51852 823.185 4.51852 776.963C4.51852 730.741 17.7037 719.778 64.3704 719.778C111.037 719.778 124.222 730.741 124.222 776.963ZM64.3704 807.778C98.4444 807.778 102.148 804.519 102.148 776.963C102.148 749.704 98.4444 746.444 64.3704 746.444C30.2963 746.444 26.5926 749.704 26.5926 776.963C26.5926 804.519 30.2963 807.778 64.3704 807.778ZM122 701.333L6.74074 701.333L6.74074 675.407L122 675.407L122 701.333ZM122 654.146L6.74074 654.146L6.74073 628.22L99.9259 628.22L99.9259 571.479L122 571.479L122 654.146ZM124.222 470.505C124.222 512.431 115.63 521.912 89.5555 521.912C72.8148 521.912 63.6296 517.912 59.1852 505.023C51.6296 513.171 45.4074 515.245 34.4444 515.245C11.6296 515.245 4.51851 504.134 4.5185 469.319C4.5185 434.356 11.6296 424.282 36.3704 424.282L40.8148 424.282L40.8148 450.949L39.037 450.949C28.3704 450.949 26.4444 453.468 26.4444 469.319C26.4444 485.023 28.0741 488.282 36.5185 488.282C41.2592 488.282 43.3333 487.097 47.6296 480.875L72.9629 444.282L56.3704 444.282L56.3704 419.097L89.5555 419.097L90.2963 419.097L104.37 398.801L124.37 413.319L114.889 426.801C121.556 434.06 124.222 447.394 124.222 470.505ZM86.5926 494.949C98.8889 494.949 102.296 492.282 102.296 469.616C102.296 458.801 101.556 452.431 99.3333 448.875L72.3704 487.245C74.4444 494.208 78.7407 494.949 86.5926 494.949ZM124.222 292.464C124.222 339.279 111.037 350.242 64.3704 350.242C17.7037 350.242 4.5185 339.279 4.5185 292.464C4.51849 250.094 16.2222 239.723 43.9259 239.723L44.074 239.723L44.074 265.057L43.9259 265.057C30.5926 265.057 26.5926 269.353 26.5926 292.612C26.5926 320.612 30.2963 323.872 64.3703 323.872C98.4444 323.872 102.148 320.612 102.148 292.464C102.148 267.131 97.5555 263.723 85.7037 263.723L78.4444 263.723L78.4444 298.983L57.4074 298.983L57.4074 238.834L85.2592 238.834C113.259 238.834 124.222 250.538 124.222 292.464ZM122 232.657L6.74072 188.213L6.74071 152.806L122 108.361L122 135.176L99.3333 143.472L99.3333 197.398L122 205.843L122 232.657ZM78.5926 189.843L78.5926 151.028L26.2963 170.139L26.2963 170.435L78.5926 189.843ZM123.333 52.272C123.333 78.3461 120.963 89.0127 113.556 96.4201C108.074 101.902 99.7777 104.124 87.9259 104.124L84.9629 104.124L84.9629 78.6424L87.7777 78.6424C92.6666 78.6424 95.7777 77.9016 97.7037 75.9757C101.407 72.272 102 65.7535 102 52.7164C102 39.0868 101.111 32.1238 97.7037 28.7164C95.9259 26.9387 92.6666 26.3461 89.1111 26.3461C84.5185 26.3461 81.4074 26.9387 79.6296 28.7164C75.4814 32.7164 75.6296 39.8275 74.4444 61.309C73.4074 79.9757 70.7407 90.1979 64.3703 96.272C59.6296 100.865 52.6666 103.235 40.2222 103.235C29.7037 103.235 21.2592 101.309 15.7777 95.6794C8.07404 87.8275 5.40738 74.6424 5.40738 53.9016C5.40738 31.3831 7.6296 18.4942 15.037 11.235C20.5185 5.75347 28.9629 4.272 40.3703 4.27199L42.2963 4.27199L42.2963 29.4572L40.2222 29.4572C36.2222 29.4572 32.6666 30.0498 30.7407 31.9757C27.4814 35.235 26.5926 41.9016 26.5926 53.7535C26.5926 65.7535 27.4814 72.272 30.7407 75.5313C32.3703 77.1609 35.1852 77.7535 39.037 77.7535C43.4814 77.7535 46.1481 77.1609 47.7777 75.5312C51.4814 71.8275 51.4814 65.1609 52.6666 47.235C54 27.235 55.1852 14.0498 62.2963 7.23496C67.1851 2.49421 75.6296 0.568285 88.074 0.568284C99.6296 0.568284 107.333 3.23495 112.37 8.27199C120.37 16.272 123.333 29.7535 123.333 52.272Z" fill="#EEEEEE"/>
</g>
<defs>
<filter id="filter0_d_301_3225" x="0.518555" y="0.568298" width="127.852" height="841.58" filterUnits="userSpaceOnUse" color-interpolation-filters="sRGB">
<feFlood flood-opacity="0" result="BackgroundImageFix"/>
<feColorMatrix in="SourceAlpha" type="matrix" values="0 0 0 0 0 0 0 0 0 0 0 0 0 0 0 0 0 0 127 0" result="hardAlpha"/>
<feOffset dy="4"/>
<feGaussianBlur stdDeviation="2"/>
<feComposite in2="hardAlpha" operator="out"/>
<feColorMatrix type="matrix" values="0 0 0 0 0 0 0 0 0 0 0 0 0 0 0 0 0 0 0.45 0"/>
<feBlend mode="normal" in2="BackgroundImageFix" result="effect1_dropShadow_301_3225"/>
<feBlend mode="normal" in="SourceGraphic" in2="effect1_dropShadow_301_3225" result="shape"/>
</filter>
</defs>
</svg>
